<svg viewBox="0 0 42 30" fill="none" xmlns="http://www.w3.org/2000/svg">
<path d="M35.5571 2.48652C32.8338 1.31536 29.9599 0.480264 27.0072 0.00214888C26.9803 -0.00265186 26.9525 0.000638454 26.9278 0.0115462C26.903 0.022454 26.8826 0.0404206 26.8694 0.0628751C26.4773 0.728732 26.1214 1.4127 25.8029 2.11217C22.6203 1.65929 19.383 1.65929 16.2004 2.11217C15.8805 1.41096 15.5195 0.726824 15.1192 0.0628751C15.1054 0.0408907 15.0849 0.0233201 15.0603 0.0124799C15.0357 0.00163967 15.0082 -0.00196212 14.9813 0.00214888C12.0295 0.479498 9.15653 1.31463 6.43468 2.48652C6.41124 2.49575 6.39145 2.5116 6.37808 2.53187C0.93326 10.1549 -0.558179 17.5903 0.173594 24.9319C0.175684 24.95 0.181628 24.9674 0.191071 24.9833C0.200514 24.9991 0.213263 25.013 0.22856 25.0242C3.39917 27.2248 6.9458 28.9047 10.717 29.9921C10.7436 29.9996 10.7721 29.9992 10.7984 29.9911C10.8248 29.983 10.848 29.9675 10.8647 29.9468C11.6745 28.9139 12.392 27.8202 13.01 26.6768C13.0184 26.6611 13.0232 26.6439 13.024 26.6264C13.0249 26.6089 13.0218 26.5913 13.0149 26.575C13.008 26.5587 12.9975 26.5439 12.984 26.5316C12.9706 26.5194 12.9546 26.5099 12.937 26.5039C11.8053 26.0989 10.7097 25.6105 9.66039 25.0434C9.64135 25.0329 9.62535 25.0182 9.61383 25.0005C9.6023 24.9828 9.59559 24.9628 9.59429 24.9421C9.593 24.9215 9.59715 24.9008 9.60639 24.882C9.61563 24.8632 9.62967 24.8468 9.64727 24.8343C9.86713 24.6806 10.0878 24.5191 10.2978 24.3562C10.3165 24.3418 10.339 24.3327 10.3629 24.3297C10.3868 24.3267 10.4112 24.33 10.4332 24.3393C17.3071 27.2802 24.7495 27.2802 31.5422 24.3393C31.5644 24.3293 31.5891 24.3255 31.6135 24.3282C31.6379 24.3309 31.661 24.3401 31.68 24.3546C31.89 24.5168 32.1107 24.6798 32.3363 24.8343C32.354 24.8467 32.3682 24.863 32.3775 24.8817C32.3869 24.9004 32.3912 24.921 32.3901 24.9417C32.3889 24.9624 32.3824 24.9825 32.371 25.0002C32.3596 25.0179 32.3438 25.0327 32.3248 25.0434C31.2769 25.616 30.1792 26.1046 29.0434 26.5039C29.0256 26.5101 29.0096 26.5198 28.9961 26.5323C28.9827 26.5448 28.9723 26.5599 28.9656 26.5764C28.9588 26.593 28.9559 26.6107 28.957 26.6284C28.9581 26.6461 28.9632 26.6634 28.972 26.6791C29.6003 27.8162 30.3168 28.9086 31.1156 29.9475C31.1318 29.9689 31.1548 29.985 31.1813 29.9934C31.2079 30.0018 31.2365 30.0022 31.2633 29.9944C35.0397 28.9102 38.5909 27.2301 41.7641 25.0265C41.7796 25.0159 41.7925 25.0023 41.802 24.9867C41.8115 24.971 41.8173 24.9537 41.819 24.9358C42.6952 16.4465 40.3522 9.07178 35.6088 2.53494C35.5982 2.5136 35.5799 2.49645 35.5571 2.48652ZM14.0354 20.4621C11.9656 20.4621 10.2617 18.6818 10.2617 16.4957C10.2617 14.3096 11.9336 12.5293 14.0354 12.5293C16.1545 12.5293 17.8436 14.3249 17.8092 16.4957C17.8108 18.6818 16.1381 20.4621 14.0354 20.4621ZM27.9925 20.4621C25.9227 20.4621 24.2187 18.6818 24.2187 16.4957C24.2187 14.3096 25.8907 12.5293 27.9925 12.5293C30.1115 12.5293 31.8006 14.3249 31.7662 16.4957C31.767 18.6818 30.1115 20.4621 27.9925 20.4621Z" fill="url(#paint0_linear_2290_19)"/>
<defs>
<linearGradient id="paint0_linear_2290_19" x1="0" y1="15" x2="42" y2="15" gradientUnits="userSpaceOnUse">
<stop stop-color="#B4C9FF"/>
<stop offset="1" stop-color="#C1B7FF"/>
</linearGradient>
</defs>
</svg>
