<svg viewBox="0 0 281 44" fill="none" xmlns="http://www.w3.org/2000/svg">
<path d="M63.1477 28V16.3636H70.7159V18.1307H65.2557V21.2898H70.3239V23.0568H65.2557V26.233H70.7614V28H63.1477ZM76.5824 28.1705C75.7112 28.1705 74.9631 27.9792 74.3381 27.5966C73.7169 27.214 73.2377 26.6856 72.9006 26.0114C72.5672 25.3333 72.4006 24.553 72.4006 23.6705C72.4006 22.7841 72.571 22.0019 72.9119 21.3239C73.2528 20.642 73.7339 20.1117 74.3551 19.733C74.9801 19.3504 75.7188 19.1591 76.571 19.1591C77.2794 19.1591 77.9063 19.2898 78.4517 19.5511C79.0009 19.8087 79.4384 20.1742 79.7642 20.6477C80.09 21.1174 80.2756 21.6667 80.321 22.2955H78.3551C78.2756 21.875 78.0862 21.5246 77.7869 21.2443C77.4915 20.9602 77.0956 20.8182 76.5994 20.8182C76.179 20.8182 75.8097 20.9318 75.4915 21.1591C75.1733 21.3826 74.9252 21.7045 74.7472 22.125C74.5729 22.5455 74.4858 23.0492 74.4858 23.6364C74.4858 24.2311 74.5729 24.7424 74.7472 25.1705C74.9214 25.5947 75.1657 25.9223 75.4801 26.1534C75.7983 26.3807 76.1714 26.4943 76.5994 26.4943C76.9025 26.4943 77.1733 26.4375 77.4119 26.3239C77.6544 26.2064 77.857 26.0379 78.0199 25.8182C78.1828 25.5985 78.2945 25.3314 78.3551 25.017H80.321C80.2718 25.6345 80.09 26.1818 79.7756 26.6591C79.4612 27.1326 79.0331 27.5038 78.4915 27.7727C77.9498 28.0379 77.3134 28.1705 76.5824 28.1705ZM85.8168 28.1705C84.9645 28.1705 84.2259 27.983 83.6009 27.608C82.9759 27.233 82.491 26.7083 82.1463 26.0341C81.8054 25.3598 81.6349 24.572 81.6349 23.6705C81.6349 22.7689 81.8054 21.9792 82.1463 21.3011C82.491 20.6231 82.9759 20.0966 83.6009 19.7216C84.2259 19.3466 84.9645 19.1591 85.8168 19.1591C86.669 19.1591 87.4077 19.3466 88.0327 19.7216C88.6577 20.0966 89.1406 20.6231 89.4815 21.3011C89.8262 21.9792 89.9986 22.7689 89.9986 23.6705C89.9986 24.572 89.8262 25.3598 89.4815 26.0341C89.1406 26.7083 88.6577 27.233 88.0327 27.608C87.4077 27.983 86.669 28.1705 85.8168 28.1705ZM85.8281 26.5227C86.2902 26.5227 86.6766 26.3958 86.9872 26.142C87.2978 25.8845 87.5289 25.5398 87.6804 25.108C87.8357 24.6761 87.9134 24.1951 87.9134 23.6648C87.9134 23.1307 87.8357 22.6477 87.6804 22.2159C87.5289 21.7803 87.2978 21.4337 86.9872 21.1761C86.6766 20.9186 86.2902 20.7898 85.8281 20.7898C85.3546 20.7898 84.9607 20.9186 84.6463 21.1761C84.3357 21.4337 84.1027 21.7803 83.9474 22.2159C83.7959 22.6477 83.7202 23.1307 83.7202 23.6648C83.7202 24.1951 83.7959 24.6761 83.9474 25.108C84.1027 25.5398 84.3357 25.8845 84.6463 26.142C84.9607 26.3958 85.3546 26.5227 85.8281 26.5227ZM93.8011 16.3636V28H91.7443V16.3636H93.8011ZM99.7798 28.1705C98.9048 28.1705 98.1491 27.9886 97.5128 27.625C96.8802 27.2576 96.3935 26.7386 96.0526 26.0682C95.7116 25.3939 95.5412 24.6004 95.5412 23.6875C95.5412 22.7898 95.7116 22.0019 96.0526 21.3239C96.3973 20.642 96.8783 20.1117 97.4957 19.733C98.1132 19.3504 98.8385 19.1591 99.6719 19.1591C100.21 19.1591 100.717 19.2462 101.195 19.4205C101.676 19.5909 102.1 19.8561 102.467 20.2159C102.839 20.5758 103.13 21.0341 103.342 21.5909C103.554 22.1439 103.661 22.803 103.661 23.5682V24.1989H96.5071V22.8125H101.689C101.685 22.4186 101.6 22.0682 101.433 21.7614C101.267 21.4508 101.034 21.2064 100.734 21.0284C100.439 20.8504 100.094 20.7614 99.7003 20.7614C99.2798 20.7614 98.9105 20.8636 98.5923 21.0682C98.2741 21.2689 98.026 21.5341 97.848 21.8636C97.6738 22.1894 97.5848 22.5473 97.581 22.9375V24.1477C97.581 24.6553 97.6738 25.0909 97.8594 25.4545C98.045 25.8144 98.3045 26.0909 98.6378 26.2841C98.9711 26.4735 99.3613 26.5682 99.8082 26.5682C100.107 26.5682 100.378 26.5265 100.621 26.4432C100.863 26.3561 101.073 26.2292 101.251 26.0625C101.429 25.8958 101.564 25.6894 101.655 25.4432L103.575 25.6591C103.454 26.1667 103.223 26.6098 102.882 26.9886C102.545 27.3636 102.113 27.6553 101.587 27.8636C101.06 28.0682 100.458 28.1705 99.7798 28.1705ZM113.403 28H109.46V16.3636H113.483C114.638 16.3636 115.631 16.5966 116.46 17.0625C117.294 17.5246 117.934 18.1894 118.381 19.0568C118.828 19.9242 119.051 20.9621 119.051 22.1705C119.051 23.3826 118.826 24.4242 118.375 25.2955C117.928 26.1667 117.282 26.8352 116.438 27.3011C115.597 27.767 114.585 28 113.403 28ZM111.568 26.1761H113.301C114.112 26.1761 114.788 26.0284 115.33 25.733C115.871 25.4337 116.278 24.9886 116.551 24.3977C116.824 23.803 116.96 23.0606 116.96 22.1705C116.96 21.2803 116.824 20.5417 116.551 19.9545C116.278 19.3636 115.875 18.9223 115.341 18.6307C114.811 18.3352 114.152 18.1875 113.364 18.1875H111.568V26.1761ZM120.963 28V19.2727H123.02V28H120.963ZM121.997 18.0341C121.671 18.0341 121.391 17.9261 121.156 17.7102C120.921 17.4905 120.804 17.2273 120.804 16.9205C120.804 16.6098 120.921 16.3466 121.156 16.1307C121.391 15.911 121.671 15.8011 121.997 15.8011C122.327 15.8011 122.607 15.911 122.838 16.1307C123.073 16.3466 123.19 16.6098 123.19 16.9205C123.19 17.2273 123.073 17.4905 122.838 17.7102C122.607 17.9261 122.327 18.0341 121.997 18.0341ZM125.135 28V19.2727H127.129V20.7273H127.22C127.379 20.2235 127.652 19.8352 128.038 19.5625C128.429 19.286 128.874 19.1477 129.374 19.1477C129.487 19.1477 129.614 19.1534 129.754 19.1648C129.898 19.1723 130.018 19.1856 130.112 19.2045V21.0966C130.025 21.0663 129.887 21.0398 129.697 21.017C129.512 20.9905 129.332 20.9773 129.158 20.9773C128.783 20.9773 128.446 21.0587 128.146 21.2216C127.851 21.3807 127.618 21.6023 127.447 21.8864C127.277 22.1705 127.192 22.4981 127.192 22.8693V28H125.135ZM134.983 28.1705C134.108 28.1705 133.352 27.9886 132.716 27.625C132.083 27.2576 131.597 26.7386 131.256 26.0682C130.915 25.3939 130.744 24.6004 130.744 23.6875C130.744 22.7898 130.915 22.0019 131.256 21.3239C131.6 20.642 132.081 20.1117 132.699 19.733C133.316 19.3504 134.042 19.1591 134.875 19.1591C135.413 19.1591 135.92 19.2462 136.398 19.4205C136.879 19.5909 137.303 19.8561 137.67 20.2159C138.042 20.5758 138.333 21.0341 138.545 21.5909C138.758 22.1439 138.864 22.803 138.864 23.5682V24.1989H131.71V22.8125H136.892C136.888 22.4186 136.803 22.0682 136.636 21.7614C136.47 21.4508 136.237 21.2064 135.938 21.0284C135.642 20.8504 135.297 20.7614 134.903 20.7614C134.483 20.7614 134.114 20.8636 133.795 21.0682C133.477 21.2689 133.229 21.5341 133.051 21.8636C132.877 22.1894 132.788 22.5473 132.784 22.9375V24.1477C132.784 24.6553 132.877 25.0909 133.062 25.4545C133.248 25.8144 133.508 26.0909 133.841 26.2841C134.174 26.4735 134.564 26.5682 135.011 26.5682C135.311 26.5682 135.581 26.5265 135.824 26.4432C136.066 26.3561 136.277 26.2292 136.455 26.0625C136.633 25.8958 136.767 25.6894 136.858 25.4432L138.778 25.6591C138.657 26.1667 138.426 26.6098 138.085 26.9886C137.748 27.3636 137.316 27.6553 136.79 27.8636C136.263 28.0682 135.661 28.1705 134.983 28.1705ZM144.411 28.1705C143.539 28.1705 142.791 27.9792 142.166 27.5966C141.545 27.214 141.066 26.6856 140.729 26.0114C140.395 25.3333 140.229 24.553 140.229 23.6705C140.229 22.7841 140.399 22.0019 140.74 21.3239C141.081 20.642 141.562 20.1117 142.183 19.733C142.808 19.3504 143.547 19.1591 144.399 19.1591C145.107 19.1591 145.734 19.2898 146.28 19.5511C146.829 19.8087 147.267 20.1742 147.592 20.6477C147.918 21.1174 148.104 21.6667 148.149 22.2955H146.183C146.104 21.875 145.914 21.5246 145.615 21.2443C145.32 20.9602 144.924 20.8182 144.428 20.8182C144.007 20.8182 143.638 20.9318 143.32 21.1591C143.001 21.3826 142.753 21.7045 142.575 22.125C142.401 22.5455 142.314 23.0492 142.314 23.6364C142.314 24.2311 142.401 24.7424 142.575 25.1705C142.75 25.5947 142.994 25.9223 143.308 26.1534C143.626 26.3807 144 26.4943 144.428 26.4943C144.731 26.4943 145.001 26.4375 145.24 26.3239C145.482 26.2064 145.685 26.0379 145.848 25.8182C146.011 25.5985 146.123 25.3314 146.183 25.017H148.149C148.1 25.6345 147.918 26.1818 147.604 26.6591C147.289 27.1326 146.861 27.5038 146.32 27.7727C145.778 28.0379 145.142 28.1705 144.411 28.1705ZM154.196 19.2727V20.8636H149.179V19.2727H154.196ZM150.418 17.1818H152.474V25.375C152.474 25.6515 152.516 25.8636 152.599 26.0114C152.687 26.1553 152.8 26.2538 152.94 26.3068C153.08 26.3598 153.236 26.3864 153.406 26.3864C153.535 26.3864 153.652 26.3769 153.759 26.358C153.868 26.339 153.952 26.322 154.009 26.3068L154.355 27.9148C154.245 27.9527 154.088 27.9943 153.884 28.0398C153.683 28.0852 153.437 28.1117 153.145 28.1193C152.63 28.1345 152.166 28.0568 151.753 27.8864C151.34 27.7121 151.012 27.4432 150.77 27.0795C150.531 26.7159 150.414 26.2614 150.418 25.7159V17.1818ZM159.686 28.1705C158.811 28.1705 158.055 27.9886 157.419 27.625C156.786 27.2576 156.3 26.7386 155.959 26.0682C155.618 25.3939 155.447 24.6004 155.447 23.6875C155.447 22.7898 155.618 22.0019 155.959 21.3239C156.304 20.642 156.785 20.1117 157.402 19.733C158.019 19.3504 158.745 19.1591 159.578 19.1591C160.116 19.1591 160.624 19.2462 161.101 19.4205C161.582 19.5909 162.006 19.8561 162.374 20.2159C162.745 20.5758 163.036 21.0341 163.249 21.5909C163.461 22.1439 163.567 22.803 163.567 23.5682V24.1989H156.413V22.8125H161.595C161.591 22.4186 161.506 22.0682 161.339 21.7614C161.173 21.4508 160.94 21.2064 160.641 21.0284C160.345 20.8504 160 20.7614 159.607 20.7614C159.186 20.7614 158.817 20.8636 158.499 21.0682C158.18 21.2689 157.932 21.5341 157.754 21.8636C157.58 22.1894 157.491 22.5473 157.487 22.9375V24.1477C157.487 24.6553 157.58 25.0909 157.766 25.4545C157.951 25.8144 158.211 26.0909 158.544 26.2841C158.877 26.4735 159.268 26.5682 159.714 26.5682C160.014 26.5682 160.285 26.5265 160.527 26.4432C160.769 26.3561 160.98 26.2292 161.158 26.0625C161.336 25.8958 161.47 25.6894 161.561 25.4432L163.482 25.6591C163.36 26.1667 163.129 26.6098 162.788 26.9886C162.451 27.3636 162.019 27.6553 161.493 27.8636C160.966 28.0682 160.364 28.1705 159.686 28.1705ZM169.366 28V16.3636H173.73C174.624 16.3636 175.374 16.5303 175.98 16.8636C176.59 17.197 177.05 17.6553 177.361 18.2386C177.675 18.8182 177.832 19.4773 177.832 20.2159C177.832 20.9621 177.675 21.625 177.361 22.2045C177.046 22.7841 176.582 23.2405 175.969 23.5739C175.355 23.9034 174.599 24.0682 173.702 24.0682H170.81V22.3352H173.418C173.94 22.3352 174.368 22.2443 174.702 22.0625C175.035 21.8807 175.281 21.6307 175.44 21.3125C175.603 20.9943 175.685 20.6288 175.685 20.2159C175.685 19.803 175.603 19.4394 175.44 19.125C175.281 18.8106 175.033 18.5663 174.696 18.392C174.363 18.214 173.933 18.125 173.406 18.125H171.474V28H169.366ZM181.629 16.3636V28H179.572V16.3636H181.629ZM189.307 24.3295V19.2727H191.364V28H189.369V26.4489H189.278C189.081 26.9375 188.758 27.3371 188.307 27.6477C187.86 27.9583 187.309 28.1136 186.653 28.1136C186.081 28.1136 185.576 27.9867 185.136 27.733C184.701 27.4754 184.36 27.1023 184.114 26.6136C183.867 26.1212 183.744 25.5265 183.744 24.8295V19.2727H185.801V24.5114C185.801 25.0644 185.953 25.5038 186.256 25.8295C186.559 26.1553 186.956 26.3182 187.449 26.3182C187.752 26.3182 188.045 26.2443 188.33 26.0966C188.614 25.9489 188.847 25.7292 189.028 25.4375C189.214 25.142 189.307 24.7727 189.307 24.3295ZM200.376 21.5795L198.501 21.7841C198.448 21.5947 198.356 21.4167 198.223 21.25C198.094 21.0833 197.92 20.9489 197.7 20.8466C197.481 20.7443 197.212 20.6932 196.893 20.6932C196.465 20.6932 196.106 20.786 195.814 20.9716C195.526 21.1572 195.384 21.3977 195.388 21.6932C195.384 21.947 195.477 22.1534 195.666 22.3125C195.859 22.4716 196.178 22.6023 196.621 22.7045L198.109 23.0227C198.935 23.2008 199.549 23.483 199.95 23.8693C200.356 24.2557 200.56 24.7614 200.564 25.3864C200.56 25.9356 200.399 26.4205 200.081 26.8409C199.767 27.2576 199.329 27.5833 198.768 27.8182C198.208 28.053 197.564 28.1705 196.837 28.1705C195.768 28.1705 194.909 27.947 194.257 27.5C193.606 27.0492 193.217 26.4223 193.092 25.6193L195.098 25.4261C195.189 25.8201 195.382 26.1174 195.678 26.3182C195.973 26.5189 196.357 26.6193 196.831 26.6193C197.32 26.6193 197.712 26.5189 198.007 26.3182C198.306 26.1174 198.456 25.8693 198.456 25.5739C198.456 25.3239 198.359 25.1174 198.166 24.9545C197.977 24.7917 197.681 24.6667 197.28 24.5795L195.791 24.267C194.954 24.0928 194.335 23.7992 193.933 23.3864C193.532 22.9697 193.333 22.4432 193.337 21.8068C193.333 21.2689 193.479 20.803 193.774 20.4091C194.073 20.0114 194.488 19.7045 195.018 19.4886C195.553 19.2689 196.168 19.1591 196.865 19.1591C197.888 19.1591 198.693 19.3769 199.28 19.8125C199.871 20.2481 200.236 20.8371 200.376 21.5795ZM209.143 24.6818C208.685 24.6818 208.267 24.5701 207.888 24.3466C207.509 24.1193 207.206 23.8163 206.979 23.4375C206.755 23.0587 206.643 22.6402 206.643 22.1818C206.643 21.7197 206.755 21.3011 206.979 20.9261C207.206 20.5473 207.509 20.2462 207.888 20.0227C208.267 19.7955 208.685 19.6818 209.143 19.6818C209.606 19.6818 210.024 19.7955 210.399 20.0227C210.778 20.2462 211.079 20.5473 211.303 20.9261C211.53 21.3011 211.643 21.7197 211.643 22.1818C211.643 22.6402 211.53 23.0587 211.303 23.4375C211.079 23.8163 210.778 24.1193 210.399 24.3466C210.024 24.5701 209.606 24.6818 209.143 24.6818ZM225.561 16.3636H227.669V23.9659C227.669 24.7992 227.472 25.5322 227.078 26.1648C226.688 26.7973 226.139 27.2917 225.43 27.6477C224.722 28 223.894 28.1761 222.947 28.1761C221.997 28.1761 221.167 28 220.459 27.6477C219.75 27.2917 219.201 26.7973 218.811 26.1648C218.421 25.5322 218.226 24.7992 218.226 23.9659V16.3636H220.334V23.7898C220.334 24.2746 220.44 24.7064 220.652 25.0852C220.868 25.464 221.171 25.7614 221.561 25.9773C221.951 26.1894 222.413 26.2955 222.947 26.2955C223.482 26.2955 223.944 26.1894 224.334 25.9773C224.728 25.7614 225.031 25.464 225.243 25.0852C225.455 24.7064 225.561 24.2746 225.561 23.7898V16.3636ZM231.926 22.8864V28H229.869V19.2727H231.835V20.7557H231.938C232.138 20.267 232.458 19.8788 232.898 19.5909C233.341 19.303 233.888 19.1591 234.54 19.1591C235.142 19.1591 235.667 19.2879 236.114 19.5455C236.564 19.803 236.913 20.1761 237.159 20.6648C237.409 21.1534 237.532 21.7462 237.528 22.4432V28H235.472V22.7614C235.472 22.178 235.32 21.7216 235.017 21.392C234.718 21.0625 234.303 20.8977 233.773 20.8977C233.413 20.8977 233.093 20.9773 232.812 21.1364C232.536 21.2917 232.318 21.517 232.159 21.8125C232.004 22.108 231.926 22.4659 231.926 22.8864ZM239.71 28V16.3636H241.767V20.7159H241.852C241.958 20.5038 242.108 20.2784 242.301 20.0398C242.494 19.7973 242.756 19.5909 243.085 19.4205C243.415 19.2462 243.835 19.1591 244.347 19.1591C245.021 19.1591 245.629 19.3314 246.17 19.6761C246.716 20.017 247.148 20.5227 247.466 21.1932C247.788 21.8598 247.949 22.678 247.949 23.6477C247.949 24.6061 247.792 25.4205 247.477 26.0909C247.163 26.7614 246.735 27.2727 246.193 27.625C245.652 27.9773 245.038 28.1534 244.352 28.1534C243.852 28.1534 243.438 28.0701 243.108 27.9034C242.778 27.7367 242.513 27.536 242.312 27.3011C242.116 27.0625 241.962 26.8371 241.852 26.625H241.733V28H239.71ZM241.727 23.6364C241.727 24.2008 241.807 24.6951 241.966 25.1193C242.129 25.5436 242.362 25.875 242.665 26.1136C242.972 26.3485 243.343 26.4659 243.778 26.4659C244.233 26.4659 244.614 26.3447 244.92 26.1023C245.227 25.8561 245.458 25.5208 245.614 25.0966C245.773 24.6686 245.852 24.1818 245.852 23.6364C245.852 23.0947 245.775 22.6136 245.619 22.1932C245.464 21.7727 245.233 21.4432 244.926 21.2045C244.619 20.9659 244.237 20.8466 243.778 20.8466C243.339 20.8466 242.966 20.9621 242.659 21.1932C242.352 21.4242 242.119 21.7481 241.96 22.1648C241.805 22.5814 241.727 23.072 241.727 23.6364ZM251.754 16.3636V28H249.697V16.3636H251.754ZM257.676 28.1705C256.824 28.1705 256.085 27.983 255.46 27.608C254.835 27.233 254.35 26.7083 254.006 26.0341C253.665 25.3598 253.494 24.572 253.494 23.6705C253.494 22.7689 253.665 21.9792 254.006 21.3011C254.35 20.6231 254.835 20.0966 255.46 19.7216C256.085 19.3466 256.824 19.1591 257.676 19.1591C258.528 19.1591 259.267 19.3466 259.892 19.7216C260.517 20.0966 261 20.6231 261.341 21.3011C261.686 21.9792 261.858 22.7689 261.858 23.6705C261.858 24.572 261.686 25.3598 261.341 26.0341C261 26.7083 260.517 27.233 259.892 27.608C259.267 27.983 258.528 28.1705 257.676 28.1705ZM257.688 26.5227C258.15 26.5227 258.536 26.3958 258.847 26.142C259.157 25.8845 259.388 25.5398 259.54 25.108C259.695 24.6761 259.773 24.1951 259.773 23.6648C259.773 23.1307 259.695 22.6477 259.54 22.2159C259.388 21.7803 259.157 21.4337 258.847 21.1761C258.536 20.9186 258.15 20.7898 257.688 20.7898C257.214 20.7898 256.82 20.9186 256.506 21.1761C256.195 21.4337 255.962 21.7803 255.807 22.2159C255.655 22.6477 255.58 23.1307 255.58 23.6648C255.58 24.1951 255.655 24.6761 255.807 25.108C255.962 25.5398 256.195 25.8845 256.506 26.142C256.82 26.3958 257.214 26.5227 257.688 26.5227ZM267.411 28.1705C266.539 28.1705 265.791 27.9792 265.166 27.5966C264.545 27.214 264.066 26.6856 263.729 26.0114C263.395 25.3333 263.229 24.553 263.229 23.6705C263.229 22.7841 263.399 22.0019 263.74 21.3239C264.081 20.642 264.562 20.1117 265.183 19.733C265.808 19.3504 266.547 19.1591 267.399 19.1591C268.107 19.1591 268.734 19.2898 269.28 19.5511C269.829 19.8087 270.267 20.1742 270.592 20.6477C270.918 21.1174 271.104 21.6667 271.149 22.2955H269.183C269.104 21.875 268.914 21.5246 268.615 21.2443C268.32 20.9602 267.924 20.8182 267.428 20.8182C267.007 20.8182 266.638 20.9318 266.32 21.1591C266.001 21.3826 265.753 21.7045 265.575 22.125C265.401 22.5455 265.314 23.0492 265.314 23.6364C265.314 24.2311 265.401 24.7424 265.575 25.1705C265.75 25.5947 265.994 25.9223 266.308 26.1534C266.626 26.3807 267 26.4943 267.428 26.4943C267.731 26.4943 268.001 26.4375 268.24 26.3239C268.482 26.2064 268.685 26.0379 268.848 25.8182C269.011 25.5985 269.123 25.3314 269.183 25.017H271.149C271.1 25.6345 270.918 26.1818 270.604 26.6591C270.289 27.1326 269.861 27.5038 269.32 27.7727C268.778 28.0379 268.142 28.1705 267.411 28.1705ZM274.713 25.2614L274.707 22.7784H275.037L278.173 19.2727H280.577L276.719 23.5682H276.293L274.713 25.2614ZM272.838 28V16.3636H274.895V28H272.838ZM278.315 28L275.474 24.0284L276.861 22.5795L280.776 28H278.315Z" fill="url(#paint0_linear_2296_25)"/>
<path d="M44.9984 11.9998V0H15.999C10.6657 0.416659 0 3.64993 0 19.2496C2.75019 13.2498 8.74935 11.9998 10.7491 11.9998H44.9984Z" fill="url(#paint1_linear_2296_25)"/>
<path d="M45 27.7495V15.9998H13.5006C-4.50015 15.9998 -4.50019 43.2493 13.5006 43.2493H45V31.4995H13.5006C11.0004 31.4995 11.0004 27.7495 13.5006 27.7495H45Z" fill="url(#paint2_linear_2296_25)"/>
<defs>
<linearGradient id="paint0_linear_2296_25" x1="62" y1="22.1686" x2="272.824" y2="22.1686" gradientUnits="userSpaceOnUse">
<stop stop-color="#B4C9FF"/>
<stop offset="1" stop-color="#C1B7FF"/>
</linearGradient>
<linearGradient id="paint1_linear_2296_25" x1="0" y1="9.28908" x2="43.3185" y2="9.28908" gradientUnits="userSpaceOnUse">
<stop stop-color="#B4C9FF"/>
<stop offset="1" stop-color="#C1B7FF"/>
</linearGradient>
<linearGradient id="paint2_linear_2296_25" x1="0" y1="29.1492" x2="43.32" y2="29.1492" gradientUnits="userSpaceOnUse">
<stop stop-color="#B4C9FF"/>
<stop offset="1" stop-color="#C1B7FF"/>
</linearGradient>
</defs>
</svg>
