<svg width="39" height="39" viewBox="0 0 39 39" fill="none" xmlns="http://www.w3.org/2000/svg">
<path fill-rule="evenodd" clip-rule="evenodd" d="M19.5 0C30.2699 0 39 8.95035 39 19.9932C39 28.8247 33.4191 36.3167 25.6756 38.9628C24.687 39.1598 24.336 38.5354 24.336 38.0031C24.336 37.344 24.3594 35.1912 24.3594 32.5158C24.3594 30.6516 23.7354 29.4349 23.0354 28.8148C27.378 28.3195 31.941 26.6287 31.941 18.9496C31.941 16.7656 31.1844 14.9834 29.9325 13.5833C30.1353 13.0783 30.8041 11.0447 29.7414 8.2913C29.7414 8.2913 28.1073 7.75558 24.3847 10.3413C22.8267 9.89862 21.1575 9.6759 19.5 9.6681C17.8425 9.6759 16.1753 9.89862 14.6192 10.3413C10.8927 7.75558 9.2547 8.2913 9.2547 8.2913C8.19585 11.0447 8.8647 13.0783 9.06555 13.5833C7.8195 14.9834 7.05706 16.7656 7.05706 18.9496C7.05706 26.6092 11.6103 28.326 15.9413 28.831C15.3836 29.3302 14.8785 30.2109 14.703 31.5037C13.5915 32.0146 10.7679 32.8988 9.02849 29.8432C9.02849 29.8432 7.99695 27.9222 6.03915 27.7818C6.03915 27.7818 4.1379 27.7565 5.90655 28.9967C5.90655 28.9967 7.1838 29.6109 8.07105 31.9217C8.07105 31.9217 9.21571 35.4901 14.6406 34.2811C14.6504 35.9523 14.6679 37.5273 14.6679 38.0031C14.6679 38.5315 14.3091 39.15 13.336 38.9647C5.58674 36.3225 0 28.8267 0 19.9932C0 8.95035 8.7321 0 19.5 0Z" fill="url(#paint0_linear_2294_11)"/>
<defs>
<linearGradient id="paint0_linear_2294_11" x1="-1.19209e-07" y1="19" x2="39" y2="19" gradientUnits="userSpaceOnUse">
<stop stop-color="#B4C9FF"/>
<stop offset="1" stop-color="#C1B7FF"/>
</linearGradient>
</defs>
</svg>
